<?xml version="1.0" standalone="no"?>
<!DOCTYPE svg PUBLIC "-//W3C//DTD SVG 20010904//EN"
 "http://www.w3.org/TR/2001/REC-SVG-20010904/DTD/svg10.dtd">
<svg version="1.0" xmlns="http://www.w3.org/2000/svg"
 width="1280.000000pt" height="1280.000000pt" viewBox="0 0 1280.000000 1280.000000"
 preserveAspectRatio="xMidYMid meet">
<metadata>
Created by potrace 1.14, written by Peter Selinger 2001-2017
</metadata>
<g transform="translate(0.000000,1280.000000) scale(0.100000,-0.100000)"
fill="#000000" stroke="none">
<path d="M0 6400 l0 -6400 6400 0 6400 0 0 6400 0 6400 -6400 0 -6400 0 0
-6400z m2976 2823 c68 -34 113 -86 125 -145 4 -24 8 -422 9 -885 0 -464 3
-843 6 -843 3 0 38 28 78 63 232 205 476 341 750 416 268 74 643 72 900 -3
635 -186 1123 -687 1281 -1316 75 -295 63 -665 -31 -963 -53 -166 -154 -361
-262 -501 -165 -216 -452 -451 -685 -561 -272 -129 -536 -182 -851 -172 -309
10 -557 87 -823 253 -190 120 -439 344 -539 485 -112 159 -214 386 -268 593
-64 245 -61 165 -61 1892 l0 1571 27 39 c29 42 64 66 137 96 61 24 134 18 207
-19z m6854 15 c77 -26 146 -88 154 -140 4 -25 17 -2610 15 -3133 -1 -338 -231
-842 -508 -1113 -287 -280 -607 -454 -956 -518 -154 -29 -532 -27 -672 4 -347
76 -637 240 -931 527 -138 134 -200 219 -298 412 -131 259 -192 490 -201 765
-6 178 4 303 38 448 83 361 279 681 582 951 127 113 216 173 382 255 446 221
919 250 1376 83 181 -66 431 -214 599 -354 43 -36 81 -65 84 -65 9 0 6 1448
-3 1570 -7 93 -6 111 12 157 56 150 173 203 327 151z"/>
<path d="M4185 7369 c-153 -23 -319 -80 -430 -146 -278 -167 -532 -504 -611
-808 -32 -125 -44 -383 -24 -528 55 -403 298 -726 715 -948 248 -132 660 -159
965 -64 311 98 570 335 759 695 115 219 142 586 66 885 -83 328 -330 611 -706
809 -91 48 -121 58 -239 81 -149 30 -386 42 -495 24z m343 -564 c225 -46 453
-231 552 -449 77 -170 87 -382 25 -559 -55 -158 -195 -328 -342 -416 -260
-154 -600 -137 -838 42 -205 155 -325 384 -325 622 0 287 177 563 445 695 55
27 132 56 170 64 93 19 218 20 313 1z"/>
<path d="M4235 6656 c-203 -50 -387 -217 -457 -414 -28 -81 -35 -254 -14 -346
59 -249 304 -457 551 -468 l60 -3 3 623 2 622 -47 -1 c-27 0 -70 -6 -98 -13z"/>
<path d="M8019 7370 c-424 -67 -713 -284 -952 -715 -39 -70 -65 -134 -87 -215
-30 -106 -33 -131 -37 -305 -6 -211 5 -306 53 -456 96 -304 329 -561 674 -742
148 -78 284 -109 510 -114 314 -9 522 47 750 200 164 110 362 350 469 568 75
154 113 423 92 648 -14 142 -37 238 -84 356 -107 266 -350 511 -675 678 -120
62 -296 98 -507 103 -82 1 -175 -1 -206 -6z m364 -556 c258 -57 488 -269 575
-532 23 -67 26 -94 26 -217 1 -147 -6 -190 -52 -300 -87 -214 -317 -411 -536
-460 -116 -26 -315 -17 -416 19 -161 57 -307 173 -410 327 -82 123 -111 216
-117 374 -6 148 11 235 66 350 106 217 319 392 536 438 93 20 239 21 328 1z"/>
<path d="M8072 6666 c-205 -50 -395 -237 -458 -451 -27 -94 -23 -249 10 -350
74 -232 290 -403 539 -429 l57 -6 0 625 0 625 -47 -1 c-27 0 -72 -6 -101 -13z"/>
</g>
</svg>
